<?xml version="1.0" encoding="UTF-8" standalone="no"?>
<!DOCTYPE svg PUBLIC "-//W3C//DTD SVG 1.1//EN" "http://www.w3.org/Graphics/SVG/1.1/DTD/svg11.dtd">
<svg width="100%" height="100%" viewBox="0 0 5000 3334" version="1.1" xmlns="http://www.w3.org/2000/svg" xmlns:xlink="http://www.w3.org/1999/xlink" xml:space="preserve" xmlns:serif="http://www.serif.com/" style="fill-rule:evenodd;clip-rule:evenodd;stroke-linejoin:round;stroke-miterlimit:2;">
    <g transform="matrix(1,0,0,1,0,-833)">
        <g transform="matrix(42.735,0,0,42.735,-10427.4,11474.4)">
            <rect x="244" y="-249" width="117" height="78" style="fill:rgb(51,51,51);"/>
            <clipPath id="_clip1">
                <rect x="244" y="-249" width="117" height="78"/>
            </clipPath>
            <g clip-path="url(#_clip1)">
                <g transform="matrix(10,0,0,10,109.258,-200.455)">
                    <g transform="matrix(1,0,0,1,2.42418,11.0993)">
                        <path d="M19.511,-15.954L22.239,-15.954C22.016,-15.819 21.806,-15.654 21.601,-15.475C20.749,-14.727 20.114,-13.783 19.434,-12.886C19.3,-12.77 19.159,-12.663 19.009,-12.572C18.476,-12.25 17.757,-12.047 17.139,-12.201C16.727,-12.303 16.392,-12.557 16.462,-13.023C16.522,-13.424 16.808,-13.753 17.097,-14.016C17.698,-14.564 18.446,-14.93 19.056,-15.47C19.22,-15.615 19.382,-15.775 19.511,-15.954Z" style="fill:url(#_Linear2);"/>
                    </g>
                    <g transform="matrix(1,0,0,1,2.42418,11.0993)">
                        <path d="M19.434,-12.886C19.414,-12.86 19.394,-12.833 19.373,-12.807C18.829,-12.095 18.107,-11.365 17.153,-11.329C16.959,-11.322 16.758,-11.348 16.572,-11.402C15.025,-11.848 14.801,-13.835 15.247,-15.125C15.346,-15.411 15.474,-15.687 15.618,-15.954L19.511,-15.954C19.382,-15.775 19.22,-15.615 19.056,-15.47C18.446,-14.93 17.698,-14.564 17.097,-14.016C16.808,-13.753 16.522,-13.424 16.462,-13.023C16.392,-12.557 16.727,-12.303 17.139,-12.201C17.757,-12.047 18.476,-12.25 19.009,-12.572C19.159,-12.663 19.3,-12.77 19.434,-12.886Z" style="fill:url(#_Linear3);"/>
                    </g>
                    <g transform="matrix(1,0,0,1,2.42418,11.0993)">
                        <path d="M14.528,-14.194C14.718,-14.537 14.952,-14.859 15.204,-15.157C15.235,-15.195 15.267,-15.231 15.299,-15.267C15.281,-15.22 15.264,-15.173 15.247,-15.125C14.801,-13.835 15.025,-11.848 16.572,-11.402C16.758,-11.348 16.959,-11.322 17.153,-11.329C18.107,-11.365 18.829,-12.095 19.373,-12.807C20.076,-13.726 20.724,-14.705 21.601,-15.475C21.806,-15.654 22.016,-15.819 22.239,-15.954L22.75,-15.954L22.75,-14.775C22.242,-15.078 21.601,-14.694 21.188,-14.342C20.247,-13.54 19.741,-12.403 18.88,-11.537C18.528,-11.183 18.091,-10.895 17.633,-10.701C17.377,-10.594 17.112,-10.518 16.838,-10.475C16.599,-10.438 16.357,-10.431 16.118,-10.472C15.028,-10.656 14.615,-11.822 14.66,-12.802C14.674,-13.113 14.756,-13.411 14.803,-13.716C14.823,-13.844 14.855,-14.032 14.773,-14.146C14.716,-14.224 14.619,-14.223 14.528,-14.194Z" style="fill:url(#_Linear4);"/>
                    </g>
                    <g transform="matrix(1,0,0,1,2.42418,11.0993)">
                        <path d="M22.75,-14.775L22.75,-12.923C22.256,-13.116 21.617,-12.939 21.117,-12.687C20.393,-12.321 19.846,-11.716 19.24,-11.193C18.424,-10.489 17.396,-9.86 16.281,-9.884C15.987,-9.89 15.696,-9.944 15.423,-10.053C15.223,-10.133 15.036,-10.241 14.865,-10.37C13.719,-11.232 13.847,-12.809 14.415,-13.978C14.451,-14.051 14.488,-14.123 14.528,-14.194C14.619,-14.223 14.716,-14.224 14.773,-14.146C14.855,-14.032 14.823,-13.844 14.803,-13.716C14.756,-13.411 14.674,-13.113 14.66,-12.802C14.615,-11.822 15.028,-10.656 16.118,-10.472C16.357,-10.431 16.599,-10.438 16.838,-10.475C17.112,-10.518 17.377,-10.594 17.633,-10.701C18.091,-10.895 18.528,-11.183 18.88,-11.537C19.741,-12.403 20.247,-13.54 21.188,-14.342C21.601,-14.694 22.242,-15.078 22.75,-14.775Z" style="fill:url(#_Linear5);"/>
                    </g>
                    <g transform="matrix(1,0,0,1,2.42418,11.0993)">
                        <path d="M17.631,-9.421C16.635,-9.191 15.574,-9.207 14.615,-9.543C14.297,-9.654 13.994,-9.811 13.709,-9.99C13.472,-10.14 13.247,-10.312 13.035,-10.496C11.967,-11.424 10.801,-13.121 11.744,-14.506C12.185,-15.154 12.939,-15.527 13.656,-15.787C13.787,-15.835 13.93,-15.895 14.078,-15.954L14.112,-15.954C13.92,-15.857 13.734,-15.747 13.565,-15.616C12.985,-15.169 12.653,-14.551 12.56,-13.828C12.502,-13.377 12.515,-12.917 12.616,-12.473C12.983,-10.854 14.538,-9.684 16.139,-9.426C16.608,-9.351 17.12,-9.354 17.631,-9.421Z" style="fill:url(#_Linear6);"/>
                    </g>
                    <g transform="matrix(1,0,0,1,2.42418,11.0993)">
                        <path d="M14.112,-15.954L15.618,-15.954C15.498,-15.732 15.389,-15.503 15.299,-15.267C15.267,-15.231 15.235,-15.195 15.204,-15.157C14.9,-14.797 14.622,-14.403 14.415,-13.978C13.847,-12.809 13.719,-11.232 14.865,-10.37C15.036,-10.241 15.223,-10.133 15.423,-10.053C15.696,-9.944 15.987,-9.89 16.281,-9.884C17.396,-9.86 18.424,-10.489 19.24,-11.193C19.846,-11.716 20.393,-12.321 21.117,-12.687C21.617,-12.939 22.256,-13.116 22.75,-12.923L22.75,-12.362C22.257,-12.204 21.771,-11.855 21.423,-11.587C21.291,-11.485 21.159,-11.383 21.028,-11.28C20.362,-10.752 19.69,-10.247 18.921,-9.875C18.514,-9.678 18.079,-9.524 17.631,-9.421C17.12,-9.354 16.608,-9.351 16.139,-9.426C14.538,-9.684 12.983,-10.854 12.616,-12.473C12.515,-12.917 12.502,-13.377 12.56,-13.828C12.653,-14.551 12.985,-15.169 13.565,-15.616C13.734,-15.747 13.92,-15.857 14.112,-15.954Z" style="fill:url(#_Linear7);"/>
                    </g>
                    <g transform="matrix(1,0,0,1,2.42418,11.0993)">
                        <path d="M19.754,-10.346C20.195,-10.631 20.613,-10.951 21.028,-11.28C21.159,-11.383 21.291,-11.485 21.423,-11.587C21.771,-11.855 22.257,-12.204 22.75,-12.362L22.75,-8.154L11.05,-8.154L11.05,-11.482C11.568,-10.324 12.342,-9.454 13.534,-8.978C14.24,-8.696 14.983,-8.531 15.746,-8.567C16.389,-8.597 17.02,-8.809 17.614,-9.045C18.439,-9.375 19.145,-9.791 19.754,-10.346Z" style="fill:url(#_Linear8);"/>
                    </g>
                    <g transform="matrix(1,0,0,1,2.42418,11.0993)">
                        <path d="M11.05,-11.482L11.05,-15.954L14.078,-15.954C13.93,-15.895 13.787,-15.835 13.656,-15.787C12.939,-15.527 12.185,-15.154 11.744,-14.506C10.801,-13.121 11.967,-11.424 13.035,-10.496C13.247,-10.312 13.472,-10.14 13.709,-9.99C13.994,-9.811 14.297,-9.654 14.615,-9.543C16.006,-9.056 17.61,-9.24 18.921,-9.875C19.211,-10.015 19.487,-10.174 19.754,-10.346C19.145,-9.791 18.439,-9.375 17.614,-9.045C17.02,-8.809 16.389,-8.597 15.746,-8.567C14.983,-8.531 14.24,-8.696 13.534,-8.978C12.342,-9.454 11.568,-10.324 11.05,-11.482Z" style="fill:url(#_Linear9);"/>
                    </g>
                </g>
                <g>
                    <g>
                        <g>
                            <g>
                                <path d="M352.83,-237.09L343.62,-237.09C342.7,-237.09 341.95,-237.84 341.95,-238.76C341.95,-239.68 342.7,-240.43 343.62,-240.43L352.83,-240.43C353.75,-240.43 354.5,-239.68 354.5,-238.76C354.5,-237.84 353.75,-237.09 352.83,-237.09ZM343.62,-240.21C342.82,-240.21 342.18,-239.56 342.18,-238.77C342.18,-237.98 342.83,-237.33 343.62,-237.33L352.83,-237.33C353.63,-237.33 354.27,-237.98 354.27,-238.77C354.27,-239.56 353.62,-240.21 352.83,-240.21L343.62,-240.21Z" style="fill:white;fill-rule:nonzero;"/>
                            </g>
                        </g>
                        <g>
                            <path d="M346.43,-238.54C346.41,-238.51 346.38,-238.49 346.33,-238.47C346.29,-238.45 346.23,-238.44 346.17,-238.44C346.11,-238.44 346.05,-238.45 346.01,-238.46C345.96,-238.48 345.92,-238.5 345.89,-238.53C345.86,-238.56 345.84,-238.59 345.84,-238.63L346.02,-238.63C346.02,-238.6 346.04,-238.58 346.06,-238.56C346.08,-238.54 346.12,-238.53 346.16,-238.53C346.2,-238.53 346.22,-238.54 346.24,-238.55C346.26,-238.56 346.27,-238.58 346.27,-238.61C346.27,-238.63 346.26,-238.65 346.25,-238.66C346.23,-238.67 346.22,-238.68 346.19,-238.69C346.17,-238.7 346.13,-238.71 346.09,-238.72C346.04,-238.73 345.99,-238.75 345.96,-238.76C345.93,-238.77 345.9,-238.79 345.87,-238.82C345.85,-238.85 345.83,-238.88 345.83,-238.92C345.83,-238.98 345.86,-239.02 345.91,-239.05C345.96,-239.08 346.03,-239.1 346.12,-239.1C346.21,-239.1 346.28,-239.08 346.34,-239.05C346.39,-239.02 346.42,-238.97 346.43,-238.92L346.24,-238.92C346.24,-238.94 346.22,-238.96 346.2,-238.98C346.18,-238.99 346.15,-239 346.11,-239C346.08,-239 346.05,-238.99 346.03,-238.98C346.01,-238.97 346,-238.95 346,-238.92C346,-238.9 346.01,-238.89 346.02,-238.87C346.03,-238.86 346.05,-238.85 346.08,-238.84C346.1,-238.83 346.13,-238.82 346.17,-238.81C346.23,-238.8 346.27,-238.78 346.3,-238.77C346.33,-238.76 346.36,-238.74 346.39,-238.71C346.41,-238.68 346.43,-238.65 346.43,-238.61C346.47,-238.6 346.46,-238.57 346.43,-238.54Z" style="fill:white;fill-rule:nonzero;"/>
                            <rect x="346.65" y="-239.11" width="0.17" height="0.65" style="fill:white;fill-rule:nonzero;"/>
                            <path d="M347.69,-239.06C347.76,-239.02 347.8,-238.97 347.82,-238.9L347.64,-238.9C347.62,-238.93 347.6,-238.95 347.56,-238.97C347.52,-238.99 347.48,-239 347.43,-239C347.38,-239 347.34,-238.99 347.3,-238.97C347.26,-238.95 347.23,-238.93 347.21,-238.9C347.19,-238.87 347.18,-238.83 347.18,-238.79C347.18,-238.72 347.2,-238.67 347.25,-238.63C347.3,-238.59 347.36,-238.57 347.45,-238.57C347.51,-238.57 347.56,-238.58 347.61,-238.61C347.65,-238.64 347.68,-238.68 347.7,-238.73L347.41,-238.73L347.41,-238.82L347.85,-238.82L347.85,-238.69C347.84,-238.65 347.81,-238.61 347.78,-238.57C347.74,-238.53 347.7,-238.5 347.64,-238.48C347.58,-238.46 347.52,-238.45 347.44,-238.45C347.36,-238.45 347.28,-238.46 347.22,-238.49C347.16,-238.52 347.11,-238.56 347.07,-238.61C347.03,-238.66 347.02,-238.72 347.02,-238.78C347.02,-238.84 347.04,-238.9 347.07,-238.95C347.11,-239 347.16,-239.04 347.22,-239.07C347.28,-239.1 347.36,-239.11 347.44,-239.11C347.53,-239.12 347.62,-239.1 347.69,-239.06Z" style="fill:white;fill-rule:nonzero;"/>
                            <path d="M348.75,-238.46L348.58,-238.46L348.19,-238.9L348.19,-238.46L348.02,-238.46L348.02,-239.11L348.19,-239.11L348.58,-238.66L348.58,-239.11L348.75,-239.11L348.75,-238.46Z" style="fill:white;fill-rule:nonzero;"/>
                            <rect x="349.27" y="-239.11" width="0.17" height="0.65" style="fill:white;fill-rule:nonzero;"/>
                            <path d="M350.38,-238.46L350.21,-238.46L349.82,-238.9L349.82,-238.46L349.65,-238.46L349.65,-239.11L349.82,-239.11L350.21,-238.66L350.21,-239.11L350.38,-239.11L350.38,-238.46Z" style="fill:white;fill-rule:nonzero;"/>
                        </g>
                    </g>
                    <g>
                        <path d="M252.25,-179.71C252.25,-179.7 252.26,-179.69 252.26,-179.68C252.26,-179.69 252.27,-179.7 252.27,-179.71C252.27,-179.72 252.28,-179.73 252.29,-179.74L252.58,-180.27C252.59,-180.28 252.59,-180.28 252.6,-180.29L252.71,-180.29L252.71,-179.43L252.61,-179.43L252.61,-180.12L252.32,-179.58C252.31,-179.56 252.3,-179.55 252.28,-179.55L252.26,-179.55C252.24,-179.55 252.23,-179.56 252.22,-179.58L251.92,-180.12L251.92,-179.43L251.82,-179.43L251.82,-180.29L251.93,-180.29C251.94,-180.29 251.94,-180.28 251.95,-180.27L252.25,-179.74L252.25,-179.71Z" style="fill:white;fill-rule:nonzero;"/>
                        <path d="M253.89,-179.86C253.89,-179.8 253.88,-179.74 253.86,-179.68C253.84,-179.63 253.81,-179.58 253.77,-179.54C253.73,-179.5 253.69,-179.47 253.64,-179.45C253.59,-179.43 253.53,-179.42 253.47,-179.42C253.41,-179.42 253.35,-179.43 253.3,-179.45C253.25,-179.47 253.2,-179.5 253.17,-179.54C253.13,-179.58 253.1,-179.63 253.08,-179.68C253.06,-179.73 253.05,-179.79 253.05,-179.86C253.05,-179.92 253.06,-179.98 253.08,-180.04C253.1,-180.09 253.13,-180.14 253.17,-180.18C253.21,-180.22 253.25,-180.25 253.3,-180.27C253.35,-180.29 253.41,-180.3 253.47,-180.3C253.53,-180.3 253.59,-180.29 253.64,-180.27C253.69,-180.25 253.74,-180.22 253.77,-180.18C253.81,-180.14 253.84,-180.09 253.86,-180.04C253.88,-179.98 253.89,-179.92 253.89,-179.86ZM253.77,-179.86C253.77,-179.91 253.76,-179.96 253.75,-180C253.74,-180.04 253.72,-180.08 253.69,-180.11C253.66,-180.14 253.63,-180.16 253.59,-180.18C253.55,-180.2 253.51,-180.2 253.46,-180.2C253.41,-180.2 253.37,-180.19 253.33,-180.18C253.29,-180.16 253.26,-180.14 253.23,-180.11C253.2,-180.08 253.18,-180.05 253.17,-180C253.16,-179.96 253.15,-179.91 253.15,-179.86C253.15,-179.81 253.16,-179.76 253.17,-179.72C253.18,-179.68 253.2,-179.64 253.23,-179.61C253.26,-179.58 253.29,-179.56 253.33,-179.54C253.37,-179.52 253.41,-179.52 253.46,-179.52C253.51,-179.52 253.55,-179.53 253.59,-179.54C253.63,-179.56 253.66,-179.58 253.69,-179.61C253.72,-179.64 253.74,-179.67 253.75,-179.72C253.76,-179.76 253.77,-179.81 253.77,-179.86Z" style="fill:white;fill-rule:nonzero;"/>
                        <path d="M254.96,-179.86C254.96,-179.8 254.95,-179.74 254.93,-179.68C254.91,-179.63 254.88,-179.58 254.84,-179.54C254.8,-179.5 254.76,-179.47 254.71,-179.45C254.66,-179.43 254.6,-179.42 254.54,-179.42L254.22,-179.42L254.22,-180.28L254.54,-180.28C254.6,-180.28 254.66,-180.27 254.71,-180.25C254.76,-180.23 254.81,-180.2 254.84,-180.16C254.88,-180.12 254.91,-180.08 254.93,-180.02C254.95,-179.98 254.96,-179.92 254.96,-179.86ZM254.84,-179.86C254.84,-179.91 254.83,-179.96 254.82,-180C254.81,-180.04 254.79,-180.08 254.76,-180.11C254.73,-180.14 254.7,-180.16 254.66,-180.18C254.62,-180.2 254.58,-180.2 254.53,-180.2L254.33,-180.2L254.33,-179.53L254.53,-179.53C254.58,-179.53 254.62,-179.54 254.66,-179.55C254.7,-179.57 254.73,-179.59 254.76,-179.62C254.79,-179.65 254.81,-179.68 254.82,-179.73C254.83,-179.76 254.84,-179.81 254.84,-179.86Z" style="fill:white;fill-rule:nonzero;"/>
                        <path d="M255.81,-180.3L255.81,-180.2L255.4,-180.2L255.4,-179.91L255.73,-179.91L255.73,-179.82L255.4,-179.82L255.4,-179.53L255.81,-179.53L255.81,-179.44L255.28,-179.44L255.28,-180.3L255.81,-180.3Z" style="fill:white;fill-rule:nonzero;"/>
                        <path d="M256.28,-179.79L256.28,-179.43L256.16,-179.43L256.16,-180.29L256.4,-180.29C256.45,-180.29 256.5,-180.28 256.54,-180.27C256.58,-180.26 256.61,-180.24 256.64,-180.22C256.67,-180.2 256.68,-180.17 256.7,-180.14C256.71,-180.11 256.72,-180.08 256.72,-180.04C256.72,-180.01 256.72,-179.98 256.71,-179.95C256.7,-179.92 256.69,-179.9 256.67,-179.88C256.65,-179.86 256.63,-179.84 256.6,-179.83C256.57,-179.82 256.54,-179.8 256.51,-179.8C256.52,-179.79 256.54,-179.78 256.55,-179.76L256.8,-179.42L256.7,-179.42C256.68,-179.42 256.66,-179.43 256.65,-179.44L256.43,-179.75C256.42,-179.76 256.42,-179.77 256.41,-179.77C256.4,-179.77 256.39,-179.78 256.37,-179.78L256.28,-179.78L256.28,-179.79ZM256.27,-179.87L256.4,-179.87C256.43,-179.87 256.46,-179.87 256.49,-179.88C256.52,-179.89 256.54,-179.9 256.55,-179.91C256.57,-179.93 256.58,-179.94 256.59,-179.96C256.6,-179.98 256.6,-180 256.6,-180.03C256.6,-180.08 256.58,-180.12 256.55,-180.15C256.52,-180.18 256.47,-180.19 256.4,-180.19L256.27,-180.19L256.27,-179.87Z" style="fill:white;fill-rule:nonzero;"/>
                        <path d="M257.17,-180.28C257.18,-180.28 257.18,-180.27 257.19,-180.26L257.69,-179.61L257.69,-180.28L257.79,-180.28L257.79,-179.42L257.71,-179.42C257.7,-179.42 257.7,-179.43 257.69,-179.44L257.19,-180.09L257.19,-179.42L257.09,-179.42L257.09,-180.28L257.15,-180.28C257.16,-180.29 257.17,-180.29 257.17,-180.28Z" style="fill:white;fill-rule:nonzero;"/>
                        <path d="M259,-180.15C259,-180.14 258.99,-180.14 258.99,-180.14L258.97,-180.14C258.96,-180.14 258.96,-180.14 258.95,-180.15C258.94,-180.16 258.93,-180.16 258.92,-180.17C258.91,-180.18 258.89,-180.19 258.87,-180.19C258.85,-180.2 258.83,-180.2 258.8,-180.2C258.77,-180.2 258.75,-180.2 258.73,-180.19C258.71,-180.18 258.69,-180.17 258.68,-180.16C258.67,-180.15 258.66,-180.13 258.65,-180.12C258.64,-180.1 258.64,-180.09 258.64,-180.07C258.64,-180.05 258.65,-180.03 258.66,-180.01C258.67,-179.99 258.69,-179.98 258.71,-179.97C258.73,-179.96 258.75,-179.95 258.78,-179.94C258.8,-179.93 258.83,-179.92 258.86,-179.91C258.89,-179.9 258.91,-179.89 258.94,-179.88C258.96,-179.87 258.99,-179.86 259.01,-179.84C259.03,-179.82 259.05,-179.8 259.06,-179.78C259.07,-179.76 259.08,-179.73 259.08,-179.69C259.08,-179.65 259.07,-179.62 259.06,-179.58C259.05,-179.55 259.03,-179.52 259,-179.49C258.98,-179.47 258.95,-179.45 258.91,-179.43C258.87,-179.42 258.83,-179.41 258.79,-179.41C258.73,-179.41 258.68,-179.42 258.64,-179.44C258.59,-179.46 258.56,-179.49 258.52,-179.52L258.55,-179.58L258.56,-179.59L258.58,-179.59C258.59,-179.59 258.6,-179.59 258.61,-179.58C258.62,-179.57 258.63,-179.56 258.65,-179.55C258.67,-179.54 258.69,-179.53 258.71,-179.52C258.73,-179.51 258.76,-179.51 258.79,-179.51C258.82,-179.51 258.84,-179.51 258.86,-179.52C258.88,-179.53 258.9,-179.54 258.91,-179.55C258.92,-179.56 258.94,-179.58 258.94,-179.6C258.94,-179.62 258.95,-179.64 258.95,-179.66C258.95,-179.69 258.94,-179.71 258.93,-179.72C258.92,-179.74 258.9,-179.75 258.88,-179.76C258.86,-179.77 258.84,-179.78 258.81,-179.79C258.79,-179.8 258.76,-179.81 258.73,-179.81C258.7,-179.82 258.68,-179.83 258.65,-179.84C258.63,-179.85 258.6,-179.86 258.58,-179.88C258.56,-179.9 258.55,-179.92 258.53,-179.94C258.52,-179.97 258.51,-180 258.51,-180.04C258.51,-180.07 258.52,-180.1 258.53,-180.13C258.54,-180.16 258.56,-180.18 258.58,-180.21C258.6,-180.24 258.63,-180.25 258.66,-180.26C258.69,-180.27 258.73,-180.28 258.77,-180.28C258.82,-180.28 258.86,-180.27 258.9,-180.26C258.94,-180.24 258.97,-180.22 259,-180.19L259,-180.15Z" style="fill:white;fill-rule:nonzero;"/>
                        <path d="M259.95,-180.29L259.95,-180.19L259.67,-180.19L259.67,-179.43L259.55,-179.43L259.55,-180.19L259.27,-180.19L259.27,-180.29L259.95,-180.29Z" style="fill:white;fill-rule:nonzero;"/>
                        <path d="M260.57,-179.77L260.57,-179.43L260.45,-179.43L260.45,-179.77L260.14,-180.29L260.24,-180.29C260.25,-180.29 260.26,-180.29 260.26,-180.28C260.27,-180.27 260.27,-180.27 260.28,-180.26L260.48,-179.93C260.49,-179.92 260.49,-179.9 260.5,-179.89C260.51,-179.88 260.51,-179.87 260.51,-179.85C260.51,-179.86 260.52,-179.87 260.52,-179.89C260.52,-179.91 260.53,-179.92 260.54,-179.93L260.74,-180.26C260.74,-180.27 260.75,-180.27 260.75,-180.28C260.76,-180.29 260.76,-180.29 260.77,-180.29L260.87,-180.29L260.57,-179.77Z" style="fill:white;fill-rule:nonzero;"/>
                        <path d="M261.28,-179.53L261.65,-179.53L261.65,-179.43L261.16,-179.43L261.16,-180.29L261.28,-180.29L261.28,-179.53Z" style="fill:white;fill-rule:nonzero;"/>
                        <path d="M262.48,-180.3L262.48,-180.2L262.07,-180.2L262.07,-179.91L262.4,-179.91L262.4,-179.82L262.07,-179.82L262.07,-179.53L262.48,-179.53L262.48,-179.44L261.95,-179.44L261.95,-180.3L262.48,-180.3Z" style="fill:white;fill-rule:nonzero;"/>
                    </g>
                    <g>
                        <circle cx="354.03" cy="-179.92" r="0.47" style="fill:white;"/>
                    </g>
                    <g>
                        <circle cx="354.03" cy="-183.62" r="0.47" style="fill:white;"/>
                    </g>
                    <g>
                        <circle cx="354.03" cy="-187.31" r="0.47" style="fill:white;"/>
                    </g>
                    <g>
                        <rect x="353.85" y="-199.76" width="0.36" height="9.95" style="fill:white;"/>
                    </g>
                    <g>
                        <g>
                            <g>
                                <path d="M252.32,-237.2C251.45,-237.2 250.74,-237.91 250.74,-238.77C250.74,-239.64 251.45,-240.34 252.32,-240.34C252.91,-240.34 253.42,-240.02 253.69,-239.54C253.76,-239.57 253.85,-239.6 253.93,-239.6C253.63,-240.18 253.02,-240.58 252.32,-240.58C251.32,-240.58 250.5,-239.77 250.5,-238.77C250.5,-237.77 251.31,-236.96 252.32,-236.96C253.02,-236.96 253.63,-237.36 253.93,-237.95C253.85,-237.95 253.76,-237.98 253.69,-238.01C253.41,-237.52 252.9,-237.2 252.32,-237.2Z" style="fill:white;fill-rule:nonzero;"/>
                            </g>
                        </g>
                        <g>
                            <g>
                                <path d="M251.97,-239.39L252.23,-239.39L252.23,-238.48L252.79,-238.48L252.79,-238.27L251.97,-238.27L251.97,-239.39Z" style="fill:white;fill-rule:nonzero;"/>
                            </g>
                            <g>
                                <path d="M253.15,-238.33C253.06,-238.38 252.98,-238.45 252.93,-238.54C252.88,-238.63 252.85,-238.73 252.85,-238.84C252.85,-238.95 252.88,-239.05 252.93,-239.14C252.98,-239.23 253.06,-239.3 253.15,-239.35C253.24,-239.4 253.35,-239.43 253.46,-239.43C253.58,-239.43 253.68,-239.4 253.77,-239.35C253.86,-239.3 253.94,-239.23 253.99,-239.14C254.04,-239.05 254.07,-238.95 254.07,-238.84C254.07,-238.73 254.04,-238.63 253.99,-238.54C253.94,-238.45 253.86,-238.38 253.77,-238.33C253.68,-238.28 253.57,-238.25 253.46,-238.25C253.35,-238.25 253.24,-238.28 253.15,-238.33ZM253.64,-238.52C253.69,-238.55 253.74,-238.59 253.77,-238.65C253.8,-238.7 253.82,-238.77 253.82,-238.84C253.82,-238.91 253.8,-238.97 253.77,-239.03C253.74,-239.08 253.7,-239.13 253.64,-239.16C253.59,-239.19 253.53,-239.21 253.46,-239.21C253.39,-239.21 253.33,-239.19 253.28,-239.16C253.23,-239.13 253.18,-239.09 253.15,-239.03C253.12,-238.98 253.1,-238.91 253.1,-238.84C253.1,-238.77 253.12,-238.71 253.15,-238.65C253.18,-238.6 253.22,-238.55 253.28,-238.52C253.33,-238.49 253.39,-238.47 253.46,-238.47C253.53,-238.47 253.59,-238.49 253.64,-238.52Z" style="fill:white;fill-rule:nonzero;"/>
                            </g>
                            <g>
                                <path d="M255.03,-238.85L255.27,-238.85L255.27,-238.4C255.21,-238.35 255.14,-238.32 255.06,-238.29C254.98,-238.27 254.9,-238.25 254.82,-238.25C254.7,-238.25 254.6,-238.27 254.51,-238.32C254.42,-238.37 254.34,-238.44 254.29,-238.53C254.24,-238.62 254.21,-238.72 254.21,-238.83C254.21,-238.94 254.24,-239.04 254.29,-239.13C254.34,-239.22 254.42,-239.29 254.51,-239.34C254.6,-239.39 254.71,-239.41 254.83,-239.41C254.93,-239.41 255.02,-239.39 255.1,-239.36C255.18,-239.33 255.25,-239.28 255.3,-239.22L255.13,-239.07C255.05,-239.15 254.95,-239.2 254.84,-239.2C254.77,-239.2 254.71,-239.19 254.65,-239.16C254.59,-239.13 254.55,-239.09 254.52,-239.03C254.49,-238.98 254.47,-238.91 254.47,-238.84C254.47,-238.77 254.49,-238.71 254.52,-238.65C254.55,-238.6 254.59,-238.55 254.65,-238.52C254.71,-238.49 254.77,-238.47 254.84,-238.47C254.91,-238.47 254.98,-238.49 255.04,-238.52L255.04,-238.85L255.03,-238.85Z" style="fill:white;fill-rule:nonzero;"/>
                            </g>
                            <g>
                                <path d="M255.73,-238.33C255.64,-238.38 255.56,-238.45 255.51,-238.54C255.46,-238.63 255.43,-238.73 255.43,-238.84C255.43,-238.95 255.46,-239.05 255.51,-239.14C255.56,-239.23 255.64,-239.3 255.73,-239.35C255.82,-239.4 255.93,-239.43 256.04,-239.43C256.16,-239.43 256.26,-239.4 256.35,-239.35C256.44,-239.3 256.52,-239.23 256.57,-239.14C256.62,-239.05 256.65,-238.95 256.65,-238.84C256.65,-238.73 256.62,-238.63 256.57,-238.54C256.52,-238.45 256.44,-238.38 256.35,-238.33C256.26,-238.28 256.15,-238.25 256.04,-238.25C255.93,-238.25 255.82,-238.28 255.73,-238.33ZM256.22,-238.52C256.27,-238.55 256.32,-238.59 256.35,-238.65C256.38,-238.7 256.4,-238.77 256.4,-238.84C256.4,-238.91 256.38,-238.97 256.35,-239.03C256.32,-239.08 256.28,-239.13 256.22,-239.16C256.17,-239.19 256.11,-239.21 256.04,-239.21C255.97,-239.21 255.91,-239.19 255.86,-239.16C255.81,-239.13 255.76,-239.09 255.73,-239.03C255.7,-238.98 255.68,-238.91 255.68,-238.84C255.68,-238.77 255.7,-238.71 255.73,-238.65C255.76,-238.6 255.8,-238.55 255.86,-238.52C255.91,-238.49 255.97,-238.47 256.04,-238.47C256.11,-238.47 256.17,-238.49 256.22,-238.52Z" style="fill:white;fill-rule:nonzero;"/>
                            </g>
                        </g>
                    </g>
                    <g>
                        <path d="M293.45,-238.41L293.19,-239.15C293.2,-239.04 293.2,-238.94 293.2,-238.84L293.2,-238.41L293.07,-238.41L293.07,-239.3L293.27,-239.3L293.52,-238.6L293.77,-239.3L293.97,-239.3L293.97,-238.41L293.83,-238.41L293.83,-239.02C293.83,-239.09 293.83,-239.13 293.84,-239.15L293.57,-238.41L293.45,-238.41Z" style="fill:white;fill-rule:nonzero;"/>
                        <path d="M295.82,-238.85C295.82,-238.71 295.78,-238.59 295.71,-238.51C295.64,-238.43 295.54,-238.39 295.4,-238.39C295.27,-238.39 295.16,-238.43 295.09,-238.51C295.02,-238.59 294.98,-238.7 294.98,-238.85C294.98,-239 295.02,-239.11 295.09,-239.19C295.16,-239.27 295.26,-239.31 295.4,-239.31C295.53,-239.31 295.63,-239.27 295.71,-239.19C295.78,-239.11 295.82,-239 295.82,-238.85ZM295.14,-238.85C295.14,-238.74 295.16,-238.66 295.21,-238.6C295.25,-238.54 295.32,-238.52 295.41,-238.52C295.5,-238.52 295.56,-238.55 295.6,-238.6C295.64,-238.66 295.67,-238.74 295.67,-238.85C295.67,-238.96 295.65,-239.04 295.6,-239.1C295.55,-239.16 295.49,-239.18 295.41,-239.18C295.32,-239.18 295.26,-239.15 295.21,-239.1C295.17,-239.04 295.14,-238.96 295.14,-238.85Z" style="fill:white;fill-rule:nonzero;"/>
                        <path d="M297.55,-238.86C297.55,-238.71 297.51,-238.6 297.43,-238.52C297.35,-238.44 297.23,-238.4 297.08,-238.4L296.83,-238.4L296.83,-239.29L297.1,-239.29C297.24,-239.29 297.35,-239.25 297.43,-239.18C297.51,-239.11 297.55,-239 297.55,-238.86ZM297.4,-238.86C297.4,-239.07 297.3,-239.18 297.1,-239.18L296.97,-239.18L296.97,-238.54L297.07,-238.54C297.29,-238.53 297.4,-238.64 297.4,-238.86Z" style="fill:white;fill-rule:nonzero;"/>
                        <path d="M299.06,-238.41L298.56,-238.41L298.56,-239.3L299.06,-239.3L299.06,-239.18L298.7,-239.18L298.7,-238.94L299.03,-238.94L299.03,-238.82L298.7,-238.82L298.7,-238.54L299.06,-238.54L299.06,-238.41Z" style="fill:white;fill-rule:nonzero;"/>
                        <path d="M300.21,-238.77L300.21,-238.41L300.07,-238.41L300.07,-239.3L300.32,-239.3C300.43,-239.3 300.52,-239.28 300.57,-239.24C300.62,-239.2 300.65,-239.13 300.65,-239.05C300.65,-238.94 300.59,-238.86 300.48,-238.81L300.73,-238.42L300.57,-238.42L300.36,-238.77L300.21,-238.77ZM300.21,-238.88L300.31,-238.88C300.38,-238.88 300.43,-238.89 300.46,-238.92C300.49,-238.95 300.51,-238.98 300.51,-239.03C300.51,-239.08 300.49,-239.12 300.46,-239.14C300.43,-239.16 300.38,-239.17 300.31,-239.17L300.21,-239.17L300.21,-238.88Z" style="fill:white;fill-rule:nonzero;"/>
                        <path d="M302.42,-238.41L302.24,-238.41L301.8,-239.12L301.8,-239.08C301.81,-239 301.81,-238.94 301.81,-238.87L301.81,-238.41L301.68,-238.41L301.68,-239.3L301.86,-239.3L302.29,-238.6L302.29,-239.3L302.42,-239.3L302.42,-238.41Z" style="fill:white;fill-rule:nonzero;"/>
                        <path d="M305.12,-238.65C305.12,-238.57 305.09,-238.51 305.03,-238.46C304.97,-238.42 304.89,-238.39 304.79,-238.39C304.69,-238.39 304.61,-238.41 304.54,-238.44L304.54,-238.58C304.58,-238.56 304.62,-238.55 304.67,-238.54C304.72,-238.53 304.76,-238.52 304.8,-238.52C304.86,-238.52 304.9,-238.53 304.93,-238.55C304.96,-238.57 304.97,-238.6 304.97,-238.64C304.97,-238.67 304.96,-238.7 304.93,-238.72C304.9,-238.74 304.85,-238.77 304.78,-238.8C304.7,-238.83 304.64,-238.87 304.61,-238.91C304.58,-238.95 304.56,-239 304.56,-239.06C304.56,-239.13 304.59,-239.19 304.64,-239.23C304.69,-239.27 304.76,-239.29 304.85,-239.29C304.93,-239.29 305.02,-239.27 305.1,-239.23L305.05,-239.11C304.97,-239.14 304.9,-239.16 304.84,-239.16C304.79,-239.16 304.76,-239.15 304.73,-239.13C304.7,-239.11 304.69,-239.08 304.69,-239.05C304.69,-239.03 304.69,-239.01 304.7,-238.99C304.71,-238.97 304.73,-238.96 304.75,-238.94C304.77,-238.93 304.81,-238.91 304.87,-238.88C304.94,-238.85 304.98,-238.83 305.01,-238.8C305.04,-238.78 305.06,-238.75 305.08,-238.72C305.11,-238.72 305.12,-238.69 305.12,-238.65Z" style="fill:white;fill-rule:nonzero;"/>
                        <path d="M306.42,-238.41L306.27,-238.41L306.27,-239.17L306.01,-239.17L306.01,-239.29L306.68,-239.29L306.68,-239.17L306.42,-239.17L306.42,-238.41Z" style="fill:white;fill-rule:nonzero;"/>
                        <path d="M307.88,-238.89L308.09,-239.29L308.25,-239.29L307.96,-238.75L307.96,-238.41L307.81,-238.41L307.81,-238.75L307.52,-239.3L307.68,-239.3L307.88,-238.89Z" style="fill:white;fill-rule:nonzero;"/>
                        <path d="M309.18,-238.41L309.18,-239.3L309.32,-239.3L309.32,-238.54L309.69,-238.54L309.69,-238.42L309.18,-238.42L309.18,-238.41Z" style="fill:white;fill-rule:nonzero;"/>
                        <path d="M311.17,-238.41L310.67,-238.41L310.67,-239.3L311.17,-239.3L311.17,-239.18L310.81,-239.18L310.81,-238.94L311.14,-238.94L311.14,-238.82L310.81,-238.82L310.81,-238.54L311.17,-238.54L311.17,-238.41Z" style="fill:white;fill-rule:nonzero;"/>
                    </g>
                    <g>
                        <path d="M276.81,-214.14C276.97,-213.93 277.05,-213.68 277.05,-213.38C277.05,-212.95 276.88,-212.62 276.53,-212.38C276.18,-212.15 275.68,-212.03 275.03,-212.03L272.37,-212.03L272.37,-216.95L274.89,-216.95C275.52,-216.95 276,-216.83 276.32,-216.6C276.65,-216.37 276.81,-216.06 276.81,-215.66C276.81,-215.43 276.75,-215.22 276.64,-215.03C276.53,-214.84 276.36,-214.7 276.15,-214.59C276.43,-214.51 276.65,-214.35 276.81,-214.14ZM273.75,-215.95L273.75,-215L274.71,-215C275.18,-215 275.41,-215.16 275.41,-215.48C275.41,-215.79 275.18,-215.95 274.71,-215.95L273.75,-215.95ZM275.65,-213.54C275.65,-213.87 275.41,-214.04 274.92,-214.04L273.75,-214.04L273.75,-213.04L274.92,-213.04C275.4,-213.05 275.65,-213.21 275.65,-213.54Z" style="fill:white;fill-rule:nonzero;"/>
                        <path d="M281.77,-213L279.69,-213L279.3,-212.04L277.88,-212.04L280.05,-216.96L281.42,-216.96L283.6,-212.04L282.15,-212.04L281.77,-213ZM281.37,-214.02L280.74,-215.59L280.11,-214.02L281.37,-214.02Z" style="fill:white;fill-rule:nonzero;"/>
                        <path d="M285.7,-212.27C285.29,-212.49 284.97,-212.79 284.73,-213.18C284.5,-213.57 284.38,-214.01 284.38,-214.5C284.38,-214.99 284.5,-215.43 284.73,-215.82C284.96,-216.21 285.29,-216.51 285.7,-216.73C286.11,-216.95 286.57,-217.06 287.09,-217.06C287.54,-217.06 287.94,-216.98 288.31,-216.82C288.67,-216.66 288.97,-216.43 289.21,-216.13L288.32,-215.33C288,-215.71 287.61,-215.91 287.16,-215.91C286.89,-215.91 286.66,-215.85 286.45,-215.73C286.24,-215.61 286.08,-215.45 285.97,-215.23C285.86,-215.02 285.8,-214.77 285.8,-214.5C285.8,-214.22 285.86,-213.98 285.97,-213.77C286.08,-213.56 286.25,-213.39 286.45,-213.27C286.66,-213.15 286.9,-213.09 287.16,-213.09C287.61,-213.09 288,-213.28 288.32,-213.67L289.21,-212.87C288.97,-212.57 288.67,-212.34 288.31,-212.18C287.95,-212.02 287.54,-211.94 287.09,-211.94C286.57,-211.94 286.11,-212.05 285.7,-212.27Z" style="fill:white;fill-rule:nonzero;"/>
                        <path d="M292.42,-213.83L291.9,-213.27L291.9,-212.04L290.52,-212.04L290.52,-216.96L291.9,-216.96L291.9,-214.92L293.8,-216.96L295.33,-216.96L293.32,-214.78L295.43,-212.04L293.81,-212.04L292.42,-213.83Z" style="fill:white;fill-rule:nonzero;"/>
                        <path d="M299.62,-214.61L300.86,-214.61L300.86,-212.57C300.58,-212.37 300.26,-212.21 299.89,-212.11C299.52,-212 299.16,-211.95 298.79,-211.95C298.27,-211.95 297.81,-212.06 297.4,-212.28C296.99,-212.5 296.66,-212.8 296.43,-213.19C296.2,-213.58 296.08,-214.02 296.08,-214.51C296.08,-215 296.2,-215.44 296.43,-215.83C296.66,-216.22 296.99,-216.52 297.41,-216.74C297.83,-216.96 298.3,-217.07 298.82,-217.07C299.28,-217.07 299.69,-216.99 300.06,-216.84C300.43,-216.69 300.73,-216.46 300.97,-216.17L300.08,-215.37C299.75,-215.74 299.35,-215.92 298.89,-215.92C298.47,-215.92 298.13,-215.79 297.87,-215.54C297.61,-215.28 297.48,-214.94 297.48,-214.52C297.48,-214.25 297.54,-214.01 297.66,-213.79C297.78,-213.58 297.94,-213.41 298.15,-213.29C298.36,-213.17 298.6,-213.11 298.87,-213.11C299.14,-213.11 299.39,-213.16 299.62,-213.27L299.62,-214.61Z" style="fill:white;fill-rule:nonzero;"/>
                        <path d="M304.6,-213.35L303.84,-213.35L303.84,-212.04L302.45,-212.04L302.45,-216.96L304.7,-216.96C305.15,-216.96 305.53,-216.89 305.86,-216.74C306.19,-216.59 306.44,-216.38 306.62,-216.11C306.8,-215.84 306.89,-215.51 306.89,-215.14C306.89,-214.78 306.81,-214.47 306.64,-214.21C306.47,-213.95 306.24,-213.74 305.93,-213.59L306.99,-212.04L305.5,-212.04L304.6,-213.35ZM305.26,-215.67C305.11,-215.8 304.9,-215.86 304.61,-215.86L303.84,-215.86L303.84,-214.42L304.61,-214.42C304.9,-214.42 305.11,-214.48 305.26,-214.61C305.41,-214.73 305.48,-214.91 305.48,-215.14C305.48,-215.37 305.4,-215.55 305.26,-215.67Z" style="fill:white;fill-rule:nonzero;"/>
                        <path d="M309.43,-212.27C309.02,-212.49 308.69,-212.79 308.45,-213.18C308.21,-213.57 308.1,-214.01 308.1,-214.49C308.1,-214.98 308.22,-215.41 308.45,-215.8C308.69,-216.19 309.01,-216.49 309.43,-216.71C309.84,-216.93 310.31,-217.04 310.83,-217.04C311.35,-217.04 311.82,-216.93 312.23,-216.71C312.64,-216.49 312.97,-216.19 313.21,-215.8C313.45,-215.41 313.57,-214.97 313.57,-214.49C313.57,-214 313.45,-213.56 313.21,-213.18C312.97,-212.79 312.65,-212.49 312.23,-212.27C311.82,-212.05 311.35,-211.94 310.83,-211.94C310.31,-211.94 309.84,-212.05 309.43,-212.27ZM311.5,-213.27C311.7,-213.39 311.86,-213.55 311.98,-213.77C312.1,-213.98 312.16,-214.23 312.16,-214.5C312.16,-214.78 312.1,-215.02 311.98,-215.23C311.86,-215.44 311.7,-215.61 311.5,-215.73C311.3,-215.85 311.07,-215.91 310.83,-215.91C310.58,-215.91 310.36,-215.85 310.16,-215.73C309.96,-215.61 309.8,-215.45 309.68,-215.23C309.56,-215.02 309.5,-214.77 309.5,-214.5C309.5,-214.22 309.56,-213.98 309.68,-213.77C309.8,-213.56 309.96,-213.39 310.16,-213.27C310.36,-213.15 310.59,-213.09 310.83,-213.09C311.08,-213.09 311.3,-213.15 311.5,-213.27Z" style="fill:white;fill-rule:nonzero;"/>
                        <path d="M315.56,-212.54C315.15,-212.94 314.95,-213.5 314.95,-214.23L314.95,-216.96L316.34,-216.96L316.34,-214.28C316.34,-213.49 316.65,-213.1 317.27,-213.1C317.89,-213.1 318.2,-213.49 318.2,-214.28L318.2,-216.96L319.57,-216.96L319.57,-214.23C319.57,-213.5 319.37,-212.93 318.96,-212.54C318.55,-212.14 317.99,-211.94 317.26,-211.94C316.54,-211.94 315.97,-212.14 315.56,-212.54Z" style="fill:white;fill-rule:nonzero;"/>
                        <path d="M325.9,-216.96L325.9,-212.04L324.75,-212.04L322.58,-214.66L322.58,-212.04L321.22,-212.04L321.22,-216.96L322.37,-216.96L324.54,-214.34L324.54,-216.96L325.9,-216.96Z" style="fill:white;fill-rule:nonzero;"/>
                        <path d="M327.59,-216.96L329.92,-216.96C330.46,-216.96 330.94,-216.86 331.35,-216.66C331.77,-216.46 332.09,-216.17 332.32,-215.8C332.55,-215.43 332.66,-215 332.66,-214.5C332.66,-214 332.55,-213.57 332.32,-213.2C332.09,-212.83 331.77,-212.54 331.35,-212.34C330.93,-212.14 330.46,-212.04 329.92,-212.04L327.59,-212.04L327.59,-216.96ZM329.86,-213.15C330.28,-213.15 330.62,-213.27 330.88,-213.51C331.14,-213.75 331.26,-214.08 331.26,-214.5C331.26,-214.92 331.13,-215.25 330.88,-215.49C330.62,-215.73 330.29,-215.85 329.86,-215.85L328.98,-215.85L328.98,-213.15L329.86,-213.15Z" style="fill:white;fill-rule:nonzero;"/>
                        <path d="M283.66,-203.36L281.58,-203.36L281.19,-202.4L279.77,-202.4L281.94,-207.32L283.31,-207.32L285.49,-202.4L284.04,-202.4L283.66,-203.36ZM283.25,-204.38L282.62,-205.95L281.99,-204.38L283.25,-204.38Z" style="fill:white;fill-rule:nonzero;"/>
                        <path d="M291.03,-204.51C291.19,-204.3 291.27,-204.05 291.27,-203.75C291.27,-203.32 291.1,-202.99 290.75,-202.75C290.4,-202.52 289.9,-202.4 289.25,-202.4L286.59,-202.4L286.59,-207.32L289.11,-207.32C289.74,-207.32 290.22,-207.2 290.54,-206.97C290.87,-206.74 291.03,-206.43 291.03,-206.03C291.03,-205.8 290.97,-205.59 290.86,-205.4C290.75,-205.21 290.58,-205.07 290.37,-204.96C290.65,-204.87 290.87,-204.71 291.03,-204.51ZM287.96,-206.31L287.96,-205.36L288.92,-205.36C289.39,-205.36 289.62,-205.52 289.62,-205.84C289.62,-206.15 289.39,-206.31 288.92,-206.31L287.96,-206.31ZM289.86,-203.9C289.86,-204.23 289.62,-204.4 289.13,-204.4L287.96,-204.4L287.96,-203.4L289.13,-203.4C289.62,-203.41 289.86,-203.57 289.86,-203.9Z" style="fill:white;fill-rule:nonzero;"/>
                        <path d="M293.26,-202.45C292.89,-202.55 292.58,-202.68 292.35,-202.84L292.81,-203.87C293.03,-203.72 293.29,-203.61 293.58,-203.52C293.87,-203.43 294.16,-203.39 294.44,-203.39C294.97,-203.39 295.24,-203.52 295.24,-203.79C295.24,-203.93 295.16,-204.03 295.01,-204.1C294.86,-204.17 294.61,-204.24 294.28,-204.31C293.91,-204.39 293.6,-204.48 293.35,-204.57C293.1,-204.66 292.89,-204.81 292.71,-205.01C292.53,-205.21 292.44,-205.48 292.44,-205.82C292.44,-206.12 292.52,-206.39 292.69,-206.63C292.85,-206.87 293.1,-207.06 293.42,-207.2C293.75,-207.34 294.14,-207.41 294.62,-207.41C294.94,-207.41 295.26,-207.37 295.58,-207.3C295.89,-207.23 296.17,-207.12 296.41,-206.98L295.98,-205.95C295.51,-206.2 295.06,-206.33 294.62,-206.33C294.34,-206.33 294.14,-206.29 294.02,-206.21C293.89,-206.13 293.83,-206.02 293.83,-205.89C293.83,-205.76 293.9,-205.66 294.05,-205.59C294.2,-205.52 294.44,-205.46 294.77,-205.39C295.14,-205.31 295.46,-205.22 295.7,-205.13C295.95,-205.04 296.16,-204.89 296.34,-204.69C296.52,-204.49 296.61,-204.22 296.61,-203.88C296.61,-203.58 296.53,-203.32 296.36,-203.08C296.2,-202.84 295.95,-202.65 295.62,-202.51C295.29,-202.37 294.89,-202.3 294.43,-202.3C294.02,-202.3 293.64,-202.35 293.26,-202.45Z" style="fill:white;fill-rule:nonzero;"/>
                        <path d="M298.93,-206.22L297.41,-206.22L297.41,-207.32L301.82,-207.32L301.82,-206.22L300.32,-206.22L300.32,-202.4L298.93,-202.4L298.93,-206.22Z" style="fill:white;fill-rule:nonzero;"/>
                        <path d="M305.19,-203.71L304.43,-203.71L304.43,-202.4L303.04,-202.4L303.04,-207.32L305.29,-207.32C305.74,-207.32 306.12,-207.25 306.45,-207.1C306.78,-206.95 307.03,-206.74 307.21,-206.47C307.39,-206.2 307.48,-205.87 307.48,-205.5C307.48,-205.14 307.4,-204.83 307.23,-204.57C307.06,-204.31 306.83,-204.1 306.52,-203.95L307.58,-202.4L306.09,-202.4L305.19,-203.71ZM305.85,-206.03C305.7,-206.16 305.49,-206.22 305.2,-206.22L304.43,-206.22L304.43,-204.78L305.2,-204.78C305.49,-204.78 305.7,-204.84 305.85,-204.97C306,-205.09 306.07,-205.27 306.07,-205.5C306.07,-205.73 305.99,-205.91 305.85,-206.03Z" style="fill:white;fill-rule:nonzero;"/>
                        <path d="M312.23,-203.36L310.15,-203.36L309.76,-202.4L308.34,-202.4L310.51,-207.32L311.88,-207.32L314.06,-202.4L312.61,-202.4L312.23,-203.36ZM311.83,-204.38L311.2,-205.95L310.57,-204.38L311.83,-204.38Z" style="fill:white;fill-rule:nonzero;"/>
                        <path d="M316.16,-202.63C315.75,-202.85 315.43,-203.15 315.19,-203.54C314.96,-203.93 314.84,-204.37 314.84,-204.86C314.84,-205.35 314.96,-205.79 315.19,-206.18C315.42,-206.57 315.75,-206.87 316.16,-207.09C316.57,-207.31 317.03,-207.42 317.55,-207.42C318,-207.42 318.4,-207.34 318.77,-207.18C319.13,-207.02 319.43,-206.79 319.67,-206.49L318.78,-205.69C318.46,-206.07 318.07,-206.27 317.62,-206.27C317.35,-206.27 317.12,-206.21 316.91,-206.09C316.7,-205.97 316.54,-205.81 316.43,-205.59C316.32,-205.38 316.26,-205.13 316.26,-204.86C316.26,-204.58 316.32,-204.34 316.43,-204.13C316.54,-203.92 316.71,-203.75 316.91,-203.63C317.12,-203.51 317.36,-203.45 317.62,-203.45C318.07,-203.45 318.46,-203.64 318.78,-204.03L319.67,-203.23C319.43,-202.93 319.13,-202.7 318.77,-202.54C318.41,-202.38 318,-202.3 317.55,-202.3C317.03,-202.3 316.57,-202.41 316.16,-202.63Z" style="fill:white;fill-rule:nonzero;"/>
                        <path d="M322,-206.22L320.48,-206.22L320.48,-207.32L324.89,-207.32L324.89,-206.22L323.39,-206.22L323.39,-202.4L322,-202.4L322,-206.22Z" style="fill:white;fill-rule:nonzero;"/>
                    </g>
                    <g>
                        <g>
                            <path d="M308.38,-223.37L294.59,-198.34L293.86,-198.34L307.64,-223.37L308.38,-223.37Z" style="fill:white;fill-rule:nonzero;"/>
                        </g>
                    </g>
                </g>
            </g>
        </g>
    </g>
    <defs>
        <linearGradient id="_Linear2" x1="0" y1="0" x2="1" y2="0" gradientUnits="userSpaceOnUse" gradientTransform="matrix(2.15335,-3.257,3.257,2.15335,17.4098,-12.2578)"><stop offset="0" style="stop-color:rgb(3,4,10);stop-opacity:1"/><stop offset="1" style="stop-color:rgb(30,54,86);stop-opacity:1"/></linearGradient>
        <linearGradient id="_Linear3" x1="0" y1="0" x2="1" y2="0" gradientUnits="userSpaceOnUse" gradientTransform="matrix(-2.38523,3.93485,-3.93485,-2.38523,17.4879,-16.1927)"><stop offset="0" style="stop-color:rgb(3,4,10);stop-opacity:1"/><stop offset="1" style="stop-color:rgb(30,54,86);stop-opacity:1"/></linearGradient>
        <linearGradient id="_Linear4" x1="0" y1="0" x2="1" y2="0" gradientUnits="userSpaceOnUse" gradientTransform="matrix(0.737682,-4.62693,4.62693,0.737682,16.9,-10.2581)"><stop offset="0" style="stop-color:rgb(3,4,10);stop-opacity:1"/><stop offset="1" style="stop-color:rgb(30,54,86);stop-opacity:1"/></linearGradient>
        <linearGradient id="_Linear5" x1="0" y1="0" x2="1" y2="0" gradientUnits="userSpaceOnUse" gradientTransform="matrix(0.482075,2.54038,-2.54038,0.482075,18.1567,-13.1989)"><stop offset="0" style="stop-color:rgb(3,4,10);stop-opacity:1"/><stop offset="1" style="stop-color:rgb(30,54,86);stop-opacity:1"/></linearGradient>
        <linearGradient id="_Linear6" x1="0" y1="0" x2="1" y2="0" gradientUnits="userSpaceOnUse" gradientTransform="matrix(-2.69937,-5.10754,5.10754,-2.69937,14.6212,-9.37015)"><stop offset="0" style="stop-color:rgb(3,4,10);stop-opacity:1"/><stop offset="1" style="stop-color:rgb(30,54,86);stop-opacity:1"/></linearGradient>
        <linearGradient id="_Linear7" x1="0" y1="0" x2="1" y2="0" gradientUnits="userSpaceOnUse" gradientTransform="matrix(-2.32302,3.32485,-3.32485,-2.32302,16.1743,-13.3202)"><stop offset="0" style="stop-color:rgb(3,4,10);stop-opacity:1"/><stop offset="1" style="stop-color:rgb(30,54,86);stop-opacity:1"/></linearGradient>
        <linearGradient id="_Linear8" x1="0" y1="0" x2="1" y2="0" gradientUnits="userSpaceOnUse" gradientTransform="matrix(1.15143,2.92139,-2.92139,1.15143,16.1261,-10.03)"><stop offset="0" style="stop-color:rgb(3,4,10);stop-opacity:1"/><stop offset="1" style="stop-color:rgb(30,54,86);stop-opacity:1"/></linearGradient>
        <linearGradient id="_Linear9" x1="0" y1="0" x2="1" y2="0" gradientUnits="userSpaceOnUse" gradientTransform="matrix(-2.09846,3.60166,-3.60166,-2.09846,15.3366,-12.0538)"><stop offset="0" style="stop-color:rgb(3,4,10);stop-opacity:1"/><stop offset="1" style="stop-color:rgb(30,54,86);stop-opacity:1"/></linearGradient>
    </defs>
</svg>
